<mxfile modified="2022-01-27T12:25:28.153Z" host="app.diagrams.net" agent="5.0 (Windows NT 10.0; Win64; x64) AppleWebKit/537.36 (KHTML, like Gecko) Chrome/97.0.4692.99 Safari/537.36" etag="0r8V9k5ha5Vo3bUO6Jh7" version="16.4.7" type="github">
  <diagram id="f106602c-feb2-e66a-4537-3a34d633f6aa" name="Page-1">
    <mxGraphModel dx="6118" dy="4050" grid="1" gridSize="10" guides="1" tooltips="1" connect="1" arrows="1" fold="1" page="1" pageScale="1" pageWidth="4681" pageHeight="3300" background="none" math="0" shadow="0">
      <root>
        <mxCell id="0" />
        <mxCell id="1" parent="0" />
        <mxCell id="_17MJ1O9a7a1vANiGVdv-1105" value="" style="rounded=0;whiteSpace=wrap;html=1;shadow=0;glass=0;fontColor=#000000;fillColor=none;strokeColor=#00CC00;" vertex="1" parent="1">
          <mxGeometry x="-940" y="-370" width="260" height="390" as="geometry" />
        </mxCell>
        <mxCell id="_17MJ1O9a7a1vANiGVdv-1092" value="" style="rounded=0;whiteSpace=wrap;html=1;shadow=0;glass=0;fontColor=#000000;fillColor=none;strokeColor=#00CC00;" vertex="1" parent="1">
          <mxGeometry x="-1700" y="-370" width="720" height="390" as="geometry" />
        </mxCell>
        <mxCell id="_17MJ1O9a7a1vANiGVdv-1053" value="" style="edgeStyle=orthogonalEdgeStyle;rounded=0;orthogonalLoop=1;jettySize=auto;html=1;fontColor=#000000;" edge="1" parent="1" source="_17MJ1O9a7a1vANiGVdv-1001" target="_17MJ1O9a7a1vANiGVdv-1004">
          <mxGeometry relative="1" as="geometry" />
        </mxCell>
        <mxCell id="_17MJ1O9a7a1vANiGVdv-1001" value="Cloud&#xa;Pub/Sub" style="sketch=0;html=1;fillColor=#5184F3;strokeColor=none;verticalAlign=top;labelPosition=center;verticalLabelPosition=bottom;align=center;spacingTop=-6;fontSize=11;fontStyle=1;fontColor=#999999;shape=mxgraph.gcp2.hexIcon;prIcon=cloud_pubsub" vertex="1" parent="1">
          <mxGeometry x="-1686" y="-476.43" width="66" height="58.5" as="geometry" />
        </mxCell>
        <mxCell id="_17MJ1O9a7a1vANiGVdv-1054" value="" style="edgeStyle=orthogonalEdgeStyle;rounded=0;orthogonalLoop=1;jettySize=auto;html=1;fontColor=#000000;" edge="1" parent="1" source="_17MJ1O9a7a1vANiGVdv-1004" target="_17MJ1O9a7a1vANiGVdv-1050">
          <mxGeometry relative="1" as="geometry" />
        </mxCell>
        <mxCell id="_17MJ1O9a7a1vANiGVdv-1004" value="transit-delivery-bt-etl" style="rounded=1;whiteSpace=wrap;html=1;fillColor=#dae8fc;strokeColor=#6c8ebf;shadow=1;" vertex="1" parent="1">
          <mxGeometry x="-1570" y="-471.81" width="130" height="49.25" as="geometry" />
        </mxCell>
        <mxCell id="_17MJ1O9a7a1vANiGVdv-1078" value="" style="edgeStyle=orthogonalEdgeStyle;rounded=0;orthogonalLoop=1;jettySize=auto;html=1;fontColor=#000000;" edge="1" parent="1" source="_17MJ1O9a7a1vANiGVdv-1005" target="_17MJ1O9a7a1vANiGVdv-1021">
          <mxGeometry relative="1" as="geometry" />
        </mxCell>
        <mxCell id="_17MJ1O9a7a1vANiGVdv-1005" value="" style="strokeColor=#dddddd;shadow=1;strokeWidth=1;rounded=1;absoluteArcSize=1;arcSize=2;" vertex="1" parent="1">
          <mxGeometry x="-1370" y="-720" width="150" height="50" as="geometry" />
        </mxCell>
        <mxCell id="_17MJ1O9a7a1vANiGVdv-1006" value="&lt;font color=&quot;#000000&quot;&gt;PackageAttribute&lt;/font&gt;&lt;br&gt;Cloud Spanner" style="sketch=0;dashed=0;connectable=0;html=1;fillColor=#5184F3;strokeColor=none;shape=mxgraph.gcp2.hexIcon;prIcon=cloud_spanner;part=1;labelPosition=right;verticalLabelPosition=middle;align=left;verticalAlign=middle;spacingLeft=5;fontColor=#999999;fontSize=12;" vertex="1" parent="_17MJ1O9a7a1vANiGVdv-1005">
          <mxGeometry y="0.5" width="44" height="39" relative="1" as="geometry">
            <mxPoint x="5" y="-19.5" as="offset" />
          </mxGeometry>
        </mxCell>
        <mxCell id="_17MJ1O9a7a1vANiGVdv-1077" value="" style="edgeStyle=orthogonalEdgeStyle;rounded=0;orthogonalLoop=1;jettySize=auto;html=1;fontColor=#000000;" edge="1" parent="1" source="_17MJ1O9a7a1vANiGVdv-1007" target="_17MJ1O9a7a1vANiGVdv-1019">
          <mxGeometry relative="1" as="geometry" />
        </mxCell>
        <mxCell id="_17MJ1O9a7a1vANiGVdv-1007" value="" style="strokeColor=#dddddd;shadow=1;strokeWidth=1;rounded=1;absoluteArcSize=1;arcSize=2;" vertex="1" parent="1">
          <mxGeometry x="-1620" y="-720" width="180" height="50" as="geometry" />
        </mxCell>
        <mxCell id="_17MJ1O9a7a1vANiGVdv-1008" value="&lt;font color=&quot;#000000&quot;&gt;TransitPlanFlowDetail&lt;/font&gt;&lt;br&gt;Cloud Spanner" style="sketch=0;dashed=0;connectable=0;html=1;fillColor=#5184F3;strokeColor=none;shape=mxgraph.gcp2.hexIcon;prIcon=cloud_spanner;part=1;labelPosition=right;verticalLabelPosition=middle;align=left;verticalAlign=middle;spacingLeft=5;fontColor=#999999;fontSize=12;" vertex="1" parent="_17MJ1O9a7a1vANiGVdv-1007">
          <mxGeometry y="0.5" width="44" height="39" relative="1" as="geometry">
            <mxPoint x="5" y="-19.5" as="offset" />
          </mxGeometry>
        </mxCell>
        <mxCell id="_17MJ1O9a7a1vANiGVdv-1056" value="" style="edgeStyle=orthogonalEdgeStyle;rounded=0;orthogonalLoop=1;jettySize=auto;html=1;fontColor=#000000;entryX=0;entryY=0.25;entryDx=0;entryDy=0;" edge="1" parent="1" source="_17MJ1O9a7a1vANiGVdv-1015" target="_17MJ1O9a7a1vANiGVdv-1017">
          <mxGeometry relative="1" as="geometry">
            <Array as="points">
              <mxPoint x="-970" y="-447" />
              <mxPoint x="-970" y="-462" />
            </Array>
          </mxGeometry>
        </mxCell>
        <mxCell id="_17MJ1O9a7a1vANiGVdv-1015" value="" style="strokeColor=#dddddd;shadow=1;strokeWidth=1;rounded=1;absoluteArcSize=1;arcSize=2;" vertex="1" parent="1">
          <mxGeometry x="-1120" y="-467.68" width="130" height="41" as="geometry" />
        </mxCell>
        <mxCell id="_17MJ1O9a7a1vANiGVdv-1016" value="&lt;font color=&quot;#000000&quot;&gt;Delivery API&lt;/font&gt;" style="sketch=0;dashed=0;connectable=0;html=1;fillColor=#5184F3;strokeColor=none;shape=mxgraph.gcp2.hexIcon;prIcon=apigee_api_platform;part=1;labelPosition=right;verticalLabelPosition=middle;align=left;verticalAlign=middle;spacingLeft=5;fontColor=#999999;fontSize=12;" vertex="1" parent="_17MJ1O9a7a1vANiGVdv-1015">
          <mxGeometry y="0.5" width="44" height="39" relative="1" as="geometry">
            <mxPoint x="5" y="-19.5" as="offset" />
          </mxGeometry>
        </mxCell>
        <mxCell id="_17MJ1O9a7a1vANiGVdv-1057" value="" style="edgeStyle=orthogonalEdgeStyle;rounded=0;orthogonalLoop=1;jettySize=auto;html=1;fontColor=#000000;" edge="1" parent="1" source="_17MJ1O9a7a1vANiGVdv-1017" target="_17MJ1O9a7a1vANiGVdv-1027">
          <mxGeometry relative="1" as="geometry" />
        </mxCell>
        <mxCell id="_17MJ1O9a7a1vANiGVdv-1017" value="" style="strokeColor=#dddddd;shadow=1;strokeWidth=1;rounded=1;absoluteArcSize=1;arcSize=2;fontColor=#000000;" vertex="1" parent="1">
          <mxGeometry x="-930" y="-477.18" width="180" height="60" as="geometry" />
        </mxCell>
        <mxCell id="_17MJ1O9a7a1vANiGVdv-1018" value="&lt;font color=&quot;#000000&quot;&gt;Route Level Forecast&lt;/font&gt;&lt;br&gt;Apigee API Platform" style="sketch=0;dashed=0;connectable=0;html=1;fillColor=#5184F3;strokeColor=none;shape=mxgraph.gcp2.hexIcon;prIcon=apigee_api_platform;part=1;labelPosition=right;verticalLabelPosition=middle;align=left;verticalAlign=middle;spacingLeft=5;fontColor=#999999;fontSize=12;" vertex="1" parent="_17MJ1O9a7a1vANiGVdv-1017">
          <mxGeometry y="0.5" width="44" height="39" relative="1" as="geometry">
            <mxPoint x="5" y="-19.5" as="offset" />
          </mxGeometry>
        </mxCell>
        <mxCell id="_17MJ1O9a7a1vANiGVdv-1081" style="edgeStyle=orthogonalEdgeStyle;rounded=0;orthogonalLoop=1;jettySize=auto;html=1;entryX=0.389;entryY=-0.017;entryDx=0;entryDy=0;entryPerimeter=0;fontColor=#000000;" edge="1" parent="1" source="_17MJ1O9a7a1vANiGVdv-1019" target="_17MJ1O9a7a1vANiGVdv-1004">
          <mxGeometry relative="1" as="geometry" />
        </mxCell>
        <mxCell id="_17MJ1O9a7a1vANiGVdv-1019" value="" style="strokeColor=#dddddd;shadow=1;strokeWidth=1;rounded=1;absoluteArcSize=1;arcSize=2;" vertex="1" parent="1">
          <mxGeometry x="-1595" y="-610" width="130" height="41" as="geometry" />
        </mxCell>
        <mxCell id="_17MJ1O9a7a1vANiGVdv-1020" value="&lt;font color=&quot;#000000&quot;&gt;Transit API&lt;/font&gt;" style="sketch=0;dashed=0;connectable=0;html=1;fillColor=#5184F3;strokeColor=none;shape=mxgraph.gcp2.hexIcon;prIcon=apigee_api_platform;part=1;labelPosition=right;verticalLabelPosition=middle;align=left;verticalAlign=middle;spacingLeft=5;fontColor=#999999;fontSize=12;" vertex="1" parent="_17MJ1O9a7a1vANiGVdv-1019">
          <mxGeometry y="0.5" width="44" height="39" relative="1" as="geometry">
            <mxPoint x="5" y="-19.5" as="offset" />
          </mxGeometry>
        </mxCell>
        <mxCell id="_17MJ1O9a7a1vANiGVdv-1080" style="edgeStyle=orthogonalEdgeStyle;rounded=0;orthogonalLoop=1;jettySize=auto;html=1;entryX=0.75;entryY=0;entryDx=0;entryDy=0;fontColor=#000000;" edge="1" parent="1" source="_17MJ1O9a7a1vANiGVdv-1021" target="_17MJ1O9a7a1vANiGVdv-1004">
          <mxGeometry relative="1" as="geometry">
            <Array as="points">
              <mxPoint x="-1295" y="-520" />
              <mxPoint x="-1473" y="-520" />
            </Array>
          </mxGeometry>
        </mxCell>
        <mxCell id="_17MJ1O9a7a1vANiGVdv-1021" value="" style="strokeColor=#dddddd;shadow=1;strokeWidth=1;rounded=1;absoluteArcSize=1;arcSize=2;" vertex="1" parent="1">
          <mxGeometry x="-1370" y="-610" width="150" height="41" as="geometry" />
        </mxCell>
        <mxCell id="_17MJ1O9a7a1vANiGVdv-1022" value="&lt;font color=&quot;#000000&quot;&gt;PackageAttribute&lt;br&gt;API&lt;br&gt;&lt;/font&gt;" style="sketch=0;dashed=0;connectable=0;html=1;fillColor=#5184F3;strokeColor=none;shape=mxgraph.gcp2.hexIcon;prIcon=apigee_api_platform;part=1;labelPosition=right;verticalLabelPosition=middle;align=left;verticalAlign=middle;spacingLeft=5;fontColor=#999999;fontSize=12;" vertex="1" parent="_17MJ1O9a7a1vANiGVdv-1021">
          <mxGeometry y="0.5" width="44" height="39" relative="1" as="geometry">
            <mxPoint x="5" y="-19.5" as="offset" />
          </mxGeometry>
        </mxCell>
        <mxCell id="_17MJ1O9a7a1vANiGVdv-1082" style="edgeStyle=orthogonalEdgeStyle;rounded=0;orthogonalLoop=1;jettySize=auto;html=1;entryX=0.5;entryY=0;entryDx=0;entryDy=0;fontColor=#000000;startArrow=block;startFill=1;" edge="1" parent="1" source="_17MJ1O9a7a1vANiGVdv-1023" target="_17MJ1O9a7a1vANiGVdv-1015">
          <mxGeometry relative="1" as="geometry" />
        </mxCell>
        <mxCell id="_17MJ1O9a7a1vANiGVdv-1023" value="" style="strokeColor=#dddddd;shadow=1;strokeWidth=1;rounded=1;absoluteArcSize=1;arcSize=2;" vertex="1" parent="1">
          <mxGeometry x="-1166" y="-610" width="150" height="41" as="geometry" />
        </mxCell>
        <mxCell id="_17MJ1O9a7a1vANiGVdv-1024" value="&lt;font color=&quot;#000000&quot;&gt;StopConstructor&lt;br&gt;API&lt;/font&gt;" style="sketch=0;dashed=0;connectable=0;html=1;fillColor=#5184F3;strokeColor=none;shape=mxgraph.gcp2.hexIcon;prIcon=apigee_api_platform;part=1;labelPosition=right;verticalLabelPosition=middle;align=left;verticalAlign=middle;spacingLeft=5;fontColor=#999999;fontSize=12;" vertex="1" parent="_17MJ1O9a7a1vANiGVdv-1023">
          <mxGeometry y="0.5" width="44" height="39" relative="1" as="geometry">
            <mxPoint x="5" y="-19.5" as="offset" />
          </mxGeometry>
        </mxCell>
        <mxCell id="_17MJ1O9a7a1vANiGVdv-1084" style="edgeStyle=orthogonalEdgeStyle;rounded=0;orthogonalLoop=1;jettySize=auto;html=1;fontColor=#000000;startArrow=block;startFill=1;" edge="1" parent="1" source="_17MJ1O9a7a1vANiGVdv-1025" target="_17MJ1O9a7a1vANiGVdv-1017">
          <mxGeometry relative="1" as="geometry" />
        </mxCell>
        <mxCell id="_17MJ1O9a7a1vANiGVdv-1025" value="" style="strokeColor=#dddddd;shadow=1;strokeWidth=1;rounded=1;absoluteArcSize=1;arcSize=2;" vertex="1" parent="1">
          <mxGeometry x="-915" y="-711" width="150" height="41" as="geometry" />
        </mxCell>
        <mxCell id="_17MJ1O9a7a1vANiGVdv-1026" value="&lt;font color=&quot;#000000&quot;&gt;ODIN API&lt;/font&gt;" style="sketch=0;dashed=0;connectable=0;html=1;fillColor=#5184F3;strokeColor=none;shape=mxgraph.gcp2.hexIcon;prIcon=apigee_api_platform;part=1;labelPosition=right;verticalLabelPosition=middle;align=left;verticalAlign=middle;spacingLeft=5;fontColor=#999999;fontSize=12;" vertex="1" parent="_17MJ1O9a7a1vANiGVdv-1025">
          <mxGeometry y="0.5" width="44" height="39" relative="1" as="geometry">
            <mxPoint x="5" y="-19.5" as="offset" />
          </mxGeometry>
        </mxCell>
        <mxCell id="_17MJ1O9a7a1vANiGVdv-1027" value="User" style="sketch=0;outlineConnect=0;fontColor=#232F3E;gradientColor=none;strokeColor=#232F3E;fillColor=#ffffff;dashed=0;verticalLabelPosition=bottom;verticalAlign=top;align=center;html=1;fontSize=12;fontStyle=0;aspect=fixed;shape=mxgraph.aws4.resourceIcon;resIcon=mxgraph.aws4.user;" vertex="1" parent="1">
          <mxGeometry x="-650" y="-477.93" width="60" height="60" as="geometry" />
        </mxCell>
        <mxCell id="_17MJ1O9a7a1vANiGVdv-1028" value="BigQuery" style="sketch=0;html=1;fillColor=#5184F3;strokeColor=none;verticalAlign=top;labelPosition=center;verticalLabelPosition=bottom;align=center;spacingTop=-6;fontSize=11;fontStyle=1;fontColor=#999999;shape=mxgraph.gcp2.hexIcon;prIcon=bigquery" vertex="1" parent="1">
          <mxGeometry x="-1636" y="-336.19" width="66" height="58.5" as="geometry" />
        </mxCell>
        <mxCell id="_17MJ1O9a7a1vANiGVdv-1076" style="edgeStyle=orthogonalEdgeStyle;rounded=0;orthogonalLoop=1;jettySize=auto;html=1;entryX=0;entryY=0.5;entryDx=0;entryDy=0;fontColor=#000000;" edge="1" parent="1" source="_17MJ1O9a7a1vANiGVdv-1047" target="_17MJ1O9a7a1vANiGVdv-1017">
          <mxGeometry relative="1" as="geometry" />
        </mxCell>
        <mxCell id="_17MJ1O9a7a1vANiGVdv-1055" value="" style="edgeStyle=orthogonalEdgeStyle;rounded=0;orthogonalLoop=1;jettySize=auto;html=1;fontColor=#000000;" edge="1" parent="1" source="_17MJ1O9a7a1vANiGVdv-1050" target="_17MJ1O9a7a1vANiGVdv-1015">
          <mxGeometry relative="1" as="geometry" />
        </mxCell>
        <mxCell id="_17MJ1O9a7a1vANiGVdv-1050" value="" style="strokeColor=#dddddd;shadow=1;strokeWidth=1;rounded=1;absoluteArcSize=1;arcSize=2;fontColor=#000000;" vertex="1" parent="1">
          <mxGeometry x="-1376" y="-470.24" width="210" height="46.12" as="geometry" />
        </mxCell>
        <mxCell id="_17MJ1O9a7a1vANiGVdv-1051" value="&lt;font color=&quot;#000000&quot;&gt;TransitScanDeliveryData_V2&lt;br&gt;&lt;/font&gt;Cloud Bigtable" style="sketch=0;dashed=0;connectable=0;html=1;fillColor=#5184F3;strokeColor=none;shape=mxgraph.gcp2.hexIcon;prIcon=cloud_bigtable;part=1;labelPosition=right;verticalLabelPosition=middle;align=left;verticalAlign=middle;spacingLeft=5;fontColor=#999999;fontSize=12;" vertex="1" parent="_17MJ1O9a7a1vANiGVdv-1050">
          <mxGeometry y="0.5" width="44" height="39" relative="1" as="geometry">
            <mxPoint x="5" y="-19.5" as="offset" />
          </mxGeometry>
        </mxCell>
        <mxCell id="_17MJ1O9a7a1vANiGVdv-1085" value="" style="rounded=0;whiteSpace=wrap;html=1;shadow=0;glass=0;fontColor=#000000;fillColor=none;strokeColor=#009900;" vertex="1" parent="1">
          <mxGeometry x="-1700" y="-770" width="720" height="390" as="geometry" />
        </mxCell>
        <mxCell id="_17MJ1O9a7a1vANiGVdv-1098" value="&lt;font style=&quot;font-size: 16px;&quot;&gt;Scan Delivery&lt;/font&gt;" style="text;strokeColor=#d6b656;fillColor=#fff2cc;html=1;fontSize=16;fontStyle=1;verticalAlign=middle;align=left;rounded=0;shadow=0;glass=0;labelBorderColor=none;fontFamily=Helvetica;opacity=0;labelBackgroundColor=default;" vertex="1" parent="1">
          <mxGeometry x="-1695" y="-770" width="100" height="40" as="geometry" />
        </mxCell>
        <mxCell id="_17MJ1O9a7a1vANiGVdv-1099" value="&lt;font style=&quot;font-size: 16px&quot;&gt;Pickup&lt;/font&gt;" style="text;strokeColor=#d6b656;fillColor=#fff2cc;html=1;fontSize=16;fontStyle=1;verticalAlign=middle;align=left;rounded=0;shadow=0;glass=0;labelBorderColor=none;fontFamily=Helvetica;opacity=0;labelBackgroundColor=default;" vertex="1" parent="1">
          <mxGeometry x="-1695" y="-360" width="100" height="40" as="geometry" />
        </mxCell>
        <mxCell id="_17MJ1O9a7a1vANiGVdv-1104" style="edgeStyle=orthogonalEdgeStyle;rounded=0;orthogonalLoop=1;jettySize=auto;html=1;fontFamily=Helvetica;fontSize=16;fontColor=default;startArrow=none;startFill=0;entryX=0;entryY=0.75;entryDx=0;entryDy=0;" edge="1" parent="1" source="_17MJ1O9a7a1vANiGVdv-1102" target="_17MJ1O9a7a1vANiGVdv-1017">
          <mxGeometry relative="1" as="geometry">
            <mxPoint x="-840" y="-380" as="targetPoint" />
            <Array as="points">
              <mxPoint x="-810" y="-280" />
              <mxPoint x="-950" y="-280" />
              <mxPoint x="-950" y="-432" />
            </Array>
          </mxGeometry>
        </mxCell>
        <mxCell id="_17MJ1O9a7a1vANiGVdv-1102" value="" style="strokeColor=#dddddd;shadow=1;strokeWidth=1;rounded=1;absoluteArcSize=1;arcSize=2;fontColor=#000000;" vertex="1" parent="1">
          <mxGeometry x="-920" y="-246.19" width="220" height="46.12" as="geometry" />
        </mxCell>
        <mxCell id="_17MJ1O9a7a1vANiGVdv-1103" value="&lt;font color=&quot;#000000&quot;&gt;RouteLevelForecastData_V2&lt;br&gt;&lt;/font&gt;Cloud Bigtable" style="sketch=0;dashed=0;connectable=0;html=1;fillColor=#5184F3;strokeColor=none;shape=mxgraph.gcp2.hexIcon;prIcon=cloud_bigtable;part=1;labelPosition=right;verticalLabelPosition=middle;align=left;verticalAlign=middle;spacingLeft=5;fontColor=#999999;fontSize=12;" vertex="1" parent="_17MJ1O9a7a1vANiGVdv-1102">
          <mxGeometry y="0.5" width="44" height="39" relative="1" as="geometry">
            <mxPoint x="5" y="-19.5" as="offset" />
          </mxGeometry>
        </mxCell>
        <mxCell id="_17MJ1O9a7a1vANiGVdv-1070" value="" style="edgeStyle=orthogonalEdgeStyle;rounded=0;orthogonalLoop=1;jettySize=auto;html=1;fontColor=#000000;" edge="1" parent="1" source="_17MJ1O9a7a1vANiGVdv-1028" target="_17MJ1O9a7a1vANiGVdv-1036">
          <mxGeometry relative="1" as="geometry" />
        </mxCell>
        <mxCell id="_17MJ1O9a7a1vANiGVdv-1068" value="" style="edgeStyle=orthogonalEdgeStyle;rounded=0;orthogonalLoop=1;jettySize=auto;html=1;fontColor=#000000;" edge="1" parent="1" source="_17MJ1O9a7a1vANiGVdv-1029" target="_17MJ1O9a7a1vANiGVdv-1041">
          <mxGeometry relative="1" as="geometry" />
        </mxCell>
        <mxCell id="_17MJ1O9a7a1vANiGVdv-1029" value="BigQuery" style="sketch=0;html=1;fillColor=#5184F3;strokeColor=none;verticalAlign=top;labelPosition=center;verticalLabelPosition=bottom;align=center;spacingTop=-6;fontSize=11;fontStyle=1;fontColor=#999999;shape=mxgraph.gcp2.hexIcon;prIcon=bigquery" vertex="1" parent="1">
          <mxGeometry x="-1636" y="-246.19" width="66" height="58.5" as="geometry" />
        </mxCell>
        <mxCell id="_17MJ1O9a7a1vANiGVdv-1066" value="" style="edgeStyle=orthogonalEdgeStyle;rounded=0;orthogonalLoop=1;jettySize=auto;html=1;fontColor=#000000;" edge="1" parent="1" source="_17MJ1O9a7a1vANiGVdv-1030" target="_17MJ1O9a7a1vANiGVdv-1042">
          <mxGeometry relative="1" as="geometry" />
        </mxCell>
        <mxCell id="_17MJ1O9a7a1vANiGVdv-1030" value="BigQuery" style="sketch=0;html=1;fillColor=#5184F3;strokeColor=none;verticalAlign=top;labelPosition=center;verticalLabelPosition=bottom;align=center;spacingTop=-6;fontSize=11;fontStyle=1;fontColor=#999999;shape=mxgraph.gcp2.hexIcon;prIcon=bigquery" vertex="1" parent="1">
          <mxGeometry x="-1636" y="-166.19" width="66" height="58.5" as="geometry" />
        </mxCell>
        <mxCell id="_17MJ1O9a7a1vANiGVdv-1064" value="" style="edgeStyle=orthogonalEdgeStyle;rounded=0;orthogonalLoop=1;jettySize=auto;html=1;fontColor=#000000;" edge="1" parent="1" source="_17MJ1O9a7a1vANiGVdv-1031" target="_17MJ1O9a7a1vANiGVdv-1043">
          <mxGeometry relative="1" as="geometry" />
        </mxCell>
        <mxCell id="_17MJ1O9a7a1vANiGVdv-1031" value="BigQuery" style="sketch=0;html=1;fillColor=#5184F3;strokeColor=none;verticalAlign=top;labelPosition=center;verticalLabelPosition=bottom;align=center;spacingTop=-6;fontSize=11;fontStyle=1;fontColor=#999999;shape=mxgraph.gcp2.hexIcon;prIcon=bigquery" vertex="1" parent="1">
          <mxGeometry x="-1636" y="-86.19" width="66" height="58.5" as="geometry" />
        </mxCell>
        <mxCell id="_17MJ1O9a7a1vANiGVdv-1071" value="" style="edgeStyle=orthogonalEdgeStyle;rounded=0;orthogonalLoop=1;jettySize=auto;html=1;fontColor=#000000;" edge="1" parent="1" source="_17MJ1O9a7a1vANiGVdv-1036" target="_17MJ1O9a7a1vANiGVdv-1039">
          <mxGeometry relative="1" as="geometry" />
        </mxCell>
        <mxCell id="_17MJ1O9a7a1vANiGVdv-1036" value="TIMM ETL" style="rounded=1;whiteSpace=wrap;html=1;fillColor=#dae8fc;strokeColor=#6c8ebf;shadow=1;glass=0;" vertex="1" parent="1">
          <mxGeometry x="-1540" y="-321.81" width="110" height="30.75" as="geometry" />
        </mxCell>
        <mxCell id="_17MJ1O9a7a1vANiGVdv-1072" value="" style="edgeStyle=orthogonalEdgeStyle;rounded=0;orthogonalLoop=1;jettySize=auto;html=1;fontColor=#000000;" edge="1" parent="1" source="_17MJ1O9a7a1vANiGVdv-1039" target="_17MJ1O9a7a1vANiGVdv-1047">
          <mxGeometry relative="1" as="geometry" />
        </mxCell>
        <mxCell id="_17MJ1O9a7a1vANiGVdv-1039" value="" style="strokeColor=#dddddd;shadow=1;strokeWidth=1;rounded=1;absoluteArcSize=1;arcSize=2;fontColor=#000000;" vertex="1" parent="1">
          <mxGeometry x="-1376" y="-330" width="200" height="46.12" as="geometry" />
        </mxCell>
        <mxCell id="_17MJ1O9a7a1vANiGVdv-1040" value="&lt;font color=&quot;#000000&quot;&gt;TIMMPickupRoutePlanV2&lt;br&gt;&lt;/font&gt;Cloud Bigtable" style="sketch=0;dashed=0;connectable=0;html=1;fillColor=#5184F3;strokeColor=none;shape=mxgraph.gcp2.hexIcon;prIcon=cloud_bigtable;part=1;labelPosition=right;verticalLabelPosition=middle;align=left;verticalAlign=middle;spacingLeft=5;fontColor=#999999;fontSize=12;" vertex="1" parent="_17MJ1O9a7a1vANiGVdv-1039">
          <mxGeometry y="0.5" width="44" height="39" relative="1" as="geometry">
            <mxPoint x="5" y="-19.5" as="offset" />
          </mxGeometry>
        </mxCell>
        <mxCell id="_17MJ1O9a7a1vANiGVdv-1069" value="" style="edgeStyle=orthogonalEdgeStyle;rounded=0;orthogonalLoop=1;jettySize=auto;html=1;fontColor=#000000;" edge="1" parent="1" source="_17MJ1O9a7a1vANiGVdv-1041" target="_17MJ1O9a7a1vANiGVdv-1058">
          <mxGeometry relative="1" as="geometry" />
        </mxCell>
        <mxCell id="_17MJ1O9a7a1vANiGVdv-1041" value="OnDemand ETL" style="rounded=1;whiteSpace=wrap;html=1;fillColor=#dae8fc;strokeColor=#6c8ebf;shadow=1;glass=0;" vertex="1" parent="1">
          <mxGeometry x="-1540" y="-232.32" width="110" height="30.75" as="geometry" />
        </mxCell>
        <mxCell id="_17MJ1O9a7a1vANiGVdv-1067" value="" style="edgeStyle=orthogonalEdgeStyle;rounded=0;orthogonalLoop=1;jettySize=auto;html=1;fontColor=#000000;" edge="1" parent="1" source="_17MJ1O9a7a1vANiGVdv-1042" target="_17MJ1O9a7a1vANiGVdv-1060">
          <mxGeometry relative="1" as="geometry" />
        </mxCell>
        <mxCell id="_17MJ1O9a7a1vANiGVdv-1042" value="TundraSchedule ETL" style="rounded=1;whiteSpace=wrap;html=1;fillColor=#dae8fc;strokeColor=#6c8ebf;shadow=1;glass=0;" vertex="1" parent="1">
          <mxGeometry x="-1540" y="-155" width="110" height="36.12" as="geometry" />
        </mxCell>
        <mxCell id="_17MJ1O9a7a1vANiGVdv-1065" value="" style="edgeStyle=orthogonalEdgeStyle;rounded=0;orthogonalLoop=1;jettySize=auto;html=1;fontColor=#000000;" edge="1" parent="1" source="_17MJ1O9a7a1vANiGVdv-1043" target="_17MJ1O9a7a1vANiGVdv-1062">
          <mxGeometry relative="1" as="geometry" />
        </mxCell>
        <mxCell id="_17MJ1O9a7a1vANiGVdv-1043" value="TundraOneTime ETL" style="rounded=1;whiteSpace=wrap;html=1;fillColor=#dae8fc;strokeColor=#6c8ebf;shadow=1;glass=0;" vertex="1" parent="1">
          <mxGeometry x="-1540" y="-73.07000000000001" width="110" height="32.25" as="geometry" />
        </mxCell>
        <mxCell id="_17MJ1O9a7a1vANiGVdv-1047" value="" style="strokeColor=#dddddd;shadow=1;strokeWidth=1;rounded=1;absoluteArcSize=1;arcSize=2;" vertex="1" parent="1">
          <mxGeometry x="-1120" y="-327.44" width="130" height="41" as="geometry" />
        </mxCell>
        <mxCell id="_17MJ1O9a7a1vANiGVdv-1048" value="&lt;font color=&quot;#000000&quot;&gt;Pickup API&lt;/font&gt;" style="sketch=0;dashed=0;connectable=0;html=1;fillColor=#5184F3;strokeColor=none;shape=mxgraph.gcp2.hexIcon;prIcon=apigee_api_platform;part=1;labelPosition=right;verticalLabelPosition=middle;align=left;verticalAlign=middle;spacingLeft=5;fontColor=#999999;fontSize=12;" vertex="1" parent="_17MJ1O9a7a1vANiGVdv-1047">
          <mxGeometry y="0.5" width="44" height="39" relative="1" as="geometry">
            <mxPoint x="5" y="-19.5" as="offset" />
          </mxGeometry>
        </mxCell>
        <mxCell id="_17MJ1O9a7a1vANiGVdv-1073" style="edgeStyle=orthogonalEdgeStyle;rounded=0;orthogonalLoop=1;jettySize=auto;html=1;entryX=0.131;entryY=0.986;entryDx=0;entryDy=0;entryPerimeter=0;fontColor=#000000;" edge="1" parent="1" source="_17MJ1O9a7a1vANiGVdv-1058" target="_17MJ1O9a7a1vANiGVdv-1047">
          <mxGeometry relative="1" as="geometry" />
        </mxCell>
        <mxCell id="_17MJ1O9a7a1vANiGVdv-1058" value="" style="strokeColor=#dddddd;shadow=1;strokeWidth=1;rounded=1;absoluteArcSize=1;arcSize=2;fontColor=#000000;" vertex="1" parent="1">
          <mxGeometry x="-1376" y="-240" width="200" height="46.12" as="geometry" />
        </mxCell>
        <mxCell id="_17MJ1O9a7a1vANiGVdv-1059" value="&lt;span style=&quot;color: rgb(0 , 0 , 0)&quot;&gt;OnDemandPickupV2&lt;br&gt;&lt;/span&gt;Cloud Bigtable" style="sketch=0;dashed=0;connectable=0;html=1;fillColor=#5184F3;strokeColor=none;shape=mxgraph.gcp2.hexIcon;prIcon=cloud_bigtable;part=1;labelPosition=right;verticalLabelPosition=middle;align=left;verticalAlign=middle;spacingLeft=5;fontColor=#999999;fontSize=12;" vertex="1" parent="_17MJ1O9a7a1vANiGVdv-1058">
          <mxGeometry y="0.5" width="44" height="39" relative="1" as="geometry">
            <mxPoint x="5" y="-19.5" as="offset" />
          </mxGeometry>
        </mxCell>
        <mxCell id="_17MJ1O9a7a1vANiGVdv-1074" style="edgeStyle=orthogonalEdgeStyle;rounded=0;orthogonalLoop=1;jettySize=auto;html=1;entryX=0.5;entryY=1;entryDx=0;entryDy=0;fontColor=#000000;" edge="1" parent="1" source="_17MJ1O9a7a1vANiGVdv-1060" target="_17MJ1O9a7a1vANiGVdv-1047">
          <mxGeometry relative="1" as="geometry" />
        </mxCell>
        <mxCell id="_17MJ1O9a7a1vANiGVdv-1060" value="" style="strokeColor=#dddddd;shadow=1;strokeWidth=1;rounded=1;absoluteArcSize=1;arcSize=2;fontColor=#000000;" vertex="1" parent="1">
          <mxGeometry x="-1376" y="-160" width="200" height="46.12" as="geometry" />
        </mxCell>
        <mxCell id="_17MJ1O9a7a1vANiGVdv-1061" value="&lt;span style=&quot;color: rgb(0 , 0 , 0)&quot;&gt;TundraSchedulePickupV2&lt;/span&gt;&lt;font color=&quot;#000000&quot;&gt;&lt;br&gt;&lt;/font&gt;Cloud Bigtable" style="sketch=0;dashed=0;connectable=0;html=1;fillColor=#5184F3;strokeColor=none;shape=mxgraph.gcp2.hexIcon;prIcon=cloud_bigtable;part=1;labelPosition=right;verticalLabelPosition=middle;align=left;verticalAlign=middle;spacingLeft=5;fontColor=#999999;fontSize=12;" vertex="1" parent="_17MJ1O9a7a1vANiGVdv-1060">
          <mxGeometry y="0.5" width="44" height="39" relative="1" as="geometry">
            <mxPoint x="5" y="-19.5" as="offset" />
          </mxGeometry>
        </mxCell>
        <mxCell id="_17MJ1O9a7a1vANiGVdv-1075" style="edgeStyle=orthogonalEdgeStyle;rounded=0;orthogonalLoop=1;jettySize=auto;html=1;entryX=0.838;entryY=1.06;entryDx=0;entryDy=0;entryPerimeter=0;fontColor=#000000;" edge="1" parent="1" source="_17MJ1O9a7a1vANiGVdv-1062" target="_17MJ1O9a7a1vANiGVdv-1047">
          <mxGeometry relative="1" as="geometry" />
        </mxCell>
        <mxCell id="_17MJ1O9a7a1vANiGVdv-1062" value="" style="strokeColor=#dddddd;shadow=1;strokeWidth=1;rounded=1;absoluteArcSize=1;arcSize=2;fontColor=#000000;" vertex="1" parent="1">
          <mxGeometry x="-1376" y="-80" width="200" height="46.12" as="geometry" />
        </mxCell>
        <mxCell id="_17MJ1O9a7a1vANiGVdv-1063" value="&lt;span style=&quot;color: rgb(0 , 0 , 0)&quot;&gt;TundraOneTimePickupV2&lt;/span&gt;&lt;font color=&quot;#000000&quot;&gt;&lt;br&gt;&lt;/font&gt;Cloud Bigtable" style="sketch=0;dashed=0;connectable=0;html=1;fillColor=#5184F3;strokeColor=none;shape=mxgraph.gcp2.hexIcon;prIcon=cloud_bigtable;part=1;labelPosition=right;verticalLabelPosition=middle;align=left;verticalAlign=middle;spacingLeft=5;fontColor=#999999;fontSize=12;" vertex="1" parent="_17MJ1O9a7a1vANiGVdv-1062">
          <mxGeometry y="0.5" width="44" height="39" relative="1" as="geometry">
            <mxPoint x="5" y="-19.5" as="offset" />
          </mxGeometry>
        </mxCell>
        <mxCell id="_17MJ1O9a7a1vANiGVdv-1107" value="" style="edgeStyle=orthogonalEdgeStyle;rounded=0;orthogonalLoop=1;jettySize=auto;html=1;fontFamily=Helvetica;fontSize=16;fontColor=default;startArrow=none;startFill=0;" edge="1" parent="1" source="_17MJ1O9a7a1vANiGVdv-1106" target="_17MJ1O9a7a1vANiGVdv-1102">
          <mxGeometry relative="1" as="geometry" />
        </mxCell>
        <mxCell id="_17MJ1O9a7a1vANiGVdv-1106" value="BigQuery" style="sketch=0;html=1;fillColor=#5184F3;strokeColor=none;verticalAlign=top;labelPosition=center;verticalLabelPosition=bottom;align=center;spacingTop=-6;fontSize=11;fontStyle=1;fontColor=#999999;shape=mxgraph.gcp2.hexIcon;prIcon=bigquery" vertex="1" parent="1">
          <mxGeometry x="-843" y="-131.57" width="66" height="58.5" as="geometry" />
        </mxCell>
        <mxCell id="_17MJ1O9a7a1vANiGVdv-1108" value="&lt;font style=&quot;font-size: 16px&quot;&gt;Forecast Delivery&lt;/font&gt;" style="text;strokeColor=#d6b656;fillColor=#fff2cc;html=1;fontSize=16;fontStyle=1;verticalAlign=middle;align=left;rounded=0;shadow=0;glass=0;labelBorderColor=none;fontFamily=Helvetica;opacity=0;labelBackgroundColor=default;" vertex="1" parent="1">
          <mxGeometry x="-920" y="-370" width="100" height="40" as="geometry" />
        </mxCell>
      </root>
    </mxGraphModel>
  </diagram>
</mxfile>
